<svg xmlns="http://www.w3.org/2000/svg" width="355" height="59" viewBox="0 0 355 59" version="1.1"><path d="M 341.410 41.375 C 340.211 44.498, 341.424 46.500, 344.514 46.500 C 347.165 46.500, 347.500 46.164, 347.500 43.500 C 347.500 40.969, 347.069 40.450, 344.744 40.183 C 342.986 39.981, 341.779 40.412, 341.410 41.375" stroke="none" fill="#94c4fc" fill-rule="evenodd"/><path d="M 131 29.437 L 131 47 134.524 47 L 138.047 47 137.774 29.750 L 137.500 12.500 134.250 12.187 L 131 11.873 131 29.437 M 95.835 13.732 C 92.653 14.462, 92.521 19.219, 95.650 20.419 C 97.834 21.257, 101 19.234, 101 17 C 101 14.830, 98.351 13.154, 95.835 13.732 M 9.667 14.667 C 9.300 15.033, 9 22.450, 9 31.148 L 9 46.962 11.589 47.612 C 15.480 48.588, 24.573 47.375, 28.764 45.319 C 34.422 42.545, 37.001 37.934, 36.996 30.602 C 36.989 19.201, 30.923 14.064, 17.417 14.022 C 13.521 14.010, 10.033 14.300, 9.667 14.667 M 154.626 23.250 C 154.262 28.337, 153.685 35.763, 153.344 39.750 C 152.820 45.873, 152.963 47, 154.261 47 C 155.443 47, 155.942 45.331, 156.427 39.750 C 156.774 35.763, 157.321 29.853, 157.642 26.618 L 158.227 20.736 163.362 33.868 C 166.787 42.628, 168.998 47, 170.004 47 C 170.997 47, 173.383 42.442, 177.005 33.624 L 182.500 20.248 183.151 25.374 C 183.509 28.193, 183.853 33.200, 183.915 36.500 C 184.054 43.937, 184.833 47, 186.585 47 C 187.660 47, 187.815 45.309, 187.342 38.750 C 185.640 15.173, 185.550 14.533, 183.870 14.211 C 182.632 13.975, 180.780 17.331, 176.175 28.160 C 170.765 40.882, 170.008 42.156, 169.164 39.961 C 161.682 20.505, 158.644 14, 157.039 14 C 155.543 14, 155.190 15.354, 154.626 23.250 M 240.323 16.601 C 239.470 18.823, 242.134 20.294, 243.868 18.560 C 244.621 17.807, 244.932 16.699, 244.559 16.096 C 243.553 14.468, 241.026 14.769, 240.323 16.601 M 17.250 19.662 C 16.356 20.023, 16 23.312, 16 31.213 L 16 42.260 20.717 41.728 C 27.266 40.990, 30 37.733, 30 30.667 C 30 24.276, 28.178 21.421, 23.221 20.044 C 19.183 18.923, 19.096 18.918, 17.250 19.662 M 43.554 24.337 C 40.299 26.717, 42.177 28.475, 47.987 28.488 C 54.604 28.503, 55.839 30.513, 49.853 31.525 C 44.715 32.393, 40 36.673, 40 40.469 C 40 46.340, 47.751 49.964, 52.777 46.443 C 54.023 45.571, 55 45.351, 55 45.943 C 55 46.524, 56.393 47, 58.097 47 L 61.193 47 60.847 37.412 C 60.519 28.344, 60.348 27.694, 57.694 25.412 C 54.474 22.644, 46.680 22.051, 43.554 24.337 M 66 35 L 66 47 69.500 47 L 73 47 73 38.535 C 73 31.190, 73.256 29.933, 74.934 29.035 C 77.436 27.696, 77.569 27.712, 79.429 29.571 C 80.593 30.736, 81 33.197, 81 39.071 L 81 47 84.597 47 L 88.193 47 87.847 37.579 C 87.540 29.244, 87.220 27.860, 85.076 25.579 C 82.485 22.823, 77.518 22.117, 73.995 24.003 C 72.743 24.673, 71.916 24.673, 71.502 24.003 C 71.161 23.451, 69.784 23, 68.441 23 L 66 23 66 35 M 94 34.937 L 94 47 97.532 47 L 101.063 47 100.782 35.250 L 100.500 23.500 97.250 23.187 L 94 22.873 94 34.937 M 109.871 24.508 C 107.207 25.956, 104 32.297, 104 36.119 C 104 42.506, 110.105 48.015, 117.151 47.986 C 122.884 47.963, 125 46.995, 125 44.396 C 125 42.167, 124.679 42.039, 119.654 42.262 C 114.182 42.506, 111 41.077, 111 38.378 C 111 37.322, 112.872 37, 119 37 C 126.375 37, 127 36.841, 127 34.968 C 127 31.665, 124.386 26.384, 121.883 24.631 C 119.040 22.639, 113.417 22.582, 109.871 24.508 M 196.294 24.297 C 194.978 25.028, 194.383 26.002, 194.820 26.709 C 195.303 27.489, 196.056 27.576, 197.026 26.963 C 199.344 25.497, 204.701 25.844, 206.429 27.571 C 209.101 30.243, 208.271 31.779, 203.750 32.530 C 195.593 33.886, 193 36.176, 193 42.025 C 193 47.375, 200.777 49.946, 205.965 46.312 C 207.674 45.115, 208.490 44.970, 208.771 45.812 C 208.988 46.465, 209.857 47, 210.700 47 C 211.802 47, 212.064 46.367, 211.630 44.750 C 211.299 43.513, 211.021 39.217, 211.014 35.205 C 211.002 28.802, 210.700 27.609, 208.545 25.455 C 205.799 22.708, 200.118 22.171, 196.294 24.297 M 257.223 24.557 C 255.977 25.429, 255 25.649, 255 25.057 C 255 24.476, 254.325 24, 253.500 24 C 252.254 24, 252 25.944, 252 35.500 C 252 45.056, 252.254 47, 253.500 47 C 254.706 47, 255 45.459, 255 39.135 C 255 29.875, 257.070 26, 262.016 26 C 266.555 26, 268 29.071, 268 38.723 C 268 45.414, 268.287 47, 269.500 47 C 270.706 47, 271 45.459, 271 39.135 C 271 29.947, 273.079 26, 277.918 26 C 282.722 26, 284 28.591, 284 38.329 C 284 46.333, 284.154 47, 286 47 C 287.803 47, 287.999 46.335, 287.994 40.250 C 287.984 27.974, 285.221 23, 278.412 23 C 276.684 23, 274.093 23.926, 272.654 25.057 L 270.039 27.114 267.831 25.057 C 265.203 22.609, 260.332 22.379, 257.223 24.557 M 298.763 24.508 C 291.039 28.861, 291.166 42.449, 298.967 46.483 C 305.529 49.876, 313.862 46.969, 316.641 40.316 C 318.602 35.624, 317.712 30.828, 314.137 26.827 C 311.911 24.336, 310.431 23.668, 306.441 23.354 C 303.202 23.099, 300.557 23.497, 298.763 24.508 M 216.620 25.250 C 217.026 25.938, 218.913 28.420, 220.814 30.767 L 224.269 35.034 219.568 41.017 C 215.647 46.008, 215.191 47, 216.817 47 C 217.957 47, 220.165 45.143, 222.133 42.531 C 223.985 40.073, 225.761 38.048, 226.080 38.031 C 226.400 38.014, 228.115 40.025, 229.893 42.500 C 231.868 45.251, 233.900 47, 235.121 47 C 236.824 47, 236.436 46.116, 232.483 40.978 L 227.850 34.957 231.925 30.090 C 236.388 24.759, 236.715 24, 234.547 24 C 233.748 24, 231.648 25.800, 229.880 28 C 228.112 30.200, 226.352 32, 225.969 32 C 225.585 32, 224.025 30.200, 222.500 28 C 220.893 25.681, 218.920 24, 217.805 24 C 216.539 24, 216.134 24.427, 216.620 25.250 M 241 35.500 C 241 45.056, 241.254 47, 242.500 47 C 243.746 47, 244 45.056, 244 35.500 C 244 25.944, 243.746 24, 242.500 24 C 241.254 24, 241 25.944, 241 35.500 M 324.049 35.111 C 326.772 41.222, 329 46.397, 329 46.611 C 329 47.914, 332.858 46.685, 333.272 45.250 C 333.549 44.288, 335.837 39.112, 338.355 33.750 C 342.323 25.303, 342.690 24, 341.104 24 C 339.746 24, 338.301 26.320, 335.500 33 C 333.424 37.950, 331.399 42, 331 42 C 330.601 42, 328.576 37.950, 326.500 33 C 323.717 26.362, 322.250 24, 320.912 24 C 319.349 24, 319.782 25.534, 324.049 35.111 M 299.913 27.282 C 297.632 29.034, 296 32.460, 296 35.500 C 296 41.226, 299.627 44.921, 305.295 44.968 C 310.811 45.014, 314 41.546, 314 35.500 C 314 29.454, 310.811 25.986, 305.295 26.032 C 303.208 26.049, 300.786 26.612, 299.913 27.282 M 112.200 29.200 C 110.076 31.324, 110.899 32, 115.607 32 C 119.397 32, 120.106 31.720, 119.607 30.418 C 119.273 29.548, 119 28.648, 119 28.418 C 119 27.446, 113.298 28.102, 112.200 29.200 M 200.263 36.115 C 194.405 37.807, 194.921 45, 200.900 45 C 205.181 45, 208 42.397, 208 38.443 C 208 34.638, 206.716 34.251, 200.263 36.115 M 48.750 37.080 C 46.645 38.306, 46.435 41.846, 48.422 42.608 C 50.798 43.520, 54 41.142, 54 38.465 C 54 35.796, 51.903 35.243, 48.750 37.080" stroke="none" fill="#fcfcfc" fill-rule="evenodd"/></svg>